# AST/ASF file generated using VICON BodyLanguage
# -----------------------------------------------
:version 1.10
:name VICON
:units
  mass 1.0
  length 0.45
  angle deg
:documentation
   .ast/.asf automatically generated from VICON data using
   VICON BodyBuilder and BodyLanguage model FoxedUp or BRILLIANT.MOD
:root
   order TX TY TZ RX RY RZ
   axis XYZ
   position 0 0 0  
   orientation 0 0 0 
:bonedata
  begin
     id 1 
     name lhipjoint
     direction 0.561001 -0.76473 0.316963 
     length 2.4722 
     axis 0 0 0  XYZ
  end
  begin
     id 2 
     name lfemur
     direction 0.34202 -0.939693 0  
     length 7.59403  
     axis 0 0 20  XYZ
    dof rx ry rz
    limits (-160.0 20.0)
           (-70.0 70.0)
           (-60.0 70.0)
  end
  begin
     id 3 
     name ltibia
     direction 0.34202 -0.939693 0   
     length 7.89655   
     axis 0 0 20   XYZ
    dof rx
    limits (-10.0 170.0)
  end
  begin
     id 4 
     name lfoot
     direction 0.061296 -0.168409 0.98381   
     length 2.73287   
     axis -90 7.62852e-016 20   XYZ
    dof rx rz
    limits (-45.0 90.0)
           (-70.0 20.0)
  end
  begin
     id 5 
     name ltoes
     direction 1.53547e-011 -4.21984e-011 1   
     length 1.37057   
     axis -90 7.62852e-016 20   XYZ
    dof rx
    limits (-90.0 20.0)
  end
  begin
     id 6 
     name rhipjoint
     direction -0.559611 -0.765599 0.317323   
     length 2.46939  
     axis 0 0 0  XYZ 
  end
  begin
     id 7 
     name rfemur
     direction -0.34202 -0.939693 0   
     length 7.53712   
     axis 0 0 -20   XYZ
    dof rx ry rz
    limits (-160.0 20.0)
           (-70.0 70.0)
           (-70.0 60.0)
  end
  begin
     id 8 
     name rtibia
     direction -0.34202 -0.939693 0   
     length 8.12549   
     axis 0 0 -20   XYZ
    dof rx
    limits (-10.0 170.0)
 end
 begin
     id 9 
     name rfoot
     direction -0.066984 -0.184037 0.980634   
     length 2.67541  
     axis -90 -7.62852e-016 -20   XYZ
    dof rx rz
    limits (-45.0 90.0)
           (-20.0 70.0)
  end
  begin
     id 10 
     name rtoes
     direction -1.53549e-011 -4.21786e-011 1   
     length 1.34085   
     axis -90 -7.62852e-016 -20   XYZ
    dof rx
    limits (-90.0 20.0)
  end
  begin
     id 11 
     name lowerback
     direction -0.0522728 0.992594 -0.109658   
     length 2.05633   
     axis 0 0 0   XYZ
    dof rx ry rz
    limits (-20.0 45.0)
           (-30.0 30.0)
           (-30.0 30.0)
  end
  begin
     id 12 
     name upperback
     direction 0.00589338 0.999977 0.00335704   
     length 2.05845   
     axis 0 0 0   XYZ
    dof rx ry rz
    limits (-20.0 45.0)
           (-30.0 30.0)
           (-30.0 30.0)
  end
  begin
     id 13 
     name thorax
     direction 0.0292928 0.998059 0.0549487   
     length 2.09281   
     axis 0 0 0   XYZ
    dof rx ry rz
    limits (-20.0 45.0)
           (-30.0 30.0)
           (-30.0 30.0)
  end
  begin
     id 14 
     name lowerneck
     direction 0.0356368 0.980775 0.191858   
     length 1.84767   
     axis 0 0 0   XYZ
    dof rx ry rz
    limits (-20.0 45.0)
           (-30.0 30.0)
           (-30.0 30.0)
  end
  begin
     id 15 
     name upperneck
     direction -0.0227605 0.98931 -0.14404   
     length 1.89582   
     axis 0 0 0   XYZ
    dof rx ry rz
    limits (-20.0 45.0)
           (-30.0 30.0)
           (-30.0 30.0)
  end
  begin
     id 16
     name head
     direction -0.00932985 0.997511 -0.0698904  
     length 1.90213  
     axis 0 0 0   XYZ
    dof rx ry rz
    limits (-20.0 45.0)
           (-30.0 30.0)
           (-30.0 30.0)
  end
  begin
     id 17 
     name lclavicle
     direction 0.873442 0.479511 0.0846686  
     length 3.41193  
     axis 0 0 0   XYZ
    dof ry rz
    limits (-20.0 10.0)
           (0.0 20.0)
  end
  begin
     id 18 
     name lhumerus
     direction 1 -4.4897e-011 -5.62117e-018   
     length 5.59864   
     axis 180 -30 -90   XYZ
    dof rx ry rz
    limits (-60.0 90.0)
           (-90.0 90.0)
           (-90.0 90.0)
  end
  begin
     id 19
     name lradius
     direction 1 -4.48966e-011 -6.26295e-027   
     length 3.59542   
     axis 180 -30 -90   XYZ
    dof rx
    limits (-10.0 170.0)
  end
  begin
     id 20
     name lwrist
     direction 1 -4.48947e-011 -1.74096e-026   
     length 1.79771   
     axis 1.04567e-014 90 90   XYZ
    dof ry
    limits (-180.0 0.0)
 end
  begin
     id 21 
     name lhand
     direction 1 -4.49085e-011 -3.48469e-026   
     length 0.572014   
     axis 2.22196e-014 90 90   XYZ
    dof rx rz
    limits (-90.0 90.0)
           (-45.0 45.0)
  end
  begin
     id 22 
     name lfingers
     direction 1 -4.48884e-011 -6.96135e-026   
     length 0.461173   
     axis 4.44383e-014 90 90   XYZ
    dof rx
    limits (0.0 90.0)
  end
  begin
     id 23
     name lthumb
     direction 0.707107 -6.34976e-011 0.707107   
     length 0.662154   
     axis -90 45 -5.4397e-014   XYZ
    dof rx rz
    limits (-45.0 45.0)
           (-45.0 45.0)
  end
  begin
     id 24 
     name rclavicle
     direction -0.890242 0.443271 0.104786   
     length 3.46753  
     axis 0 0 0   XYZ 
    dof ry rz
    limits (-10.0 20.0)
           (-20.0 0.0)
  end
  begin
     id 25 
     name rhumerus
     direction -1 -4.48963e-011 -5.41723e-018  
     length 5.8094   
     axis 180 30 90   XYZ
    dof rx ry rz
    limits (-90.0 60.0)
           (-90.0 90.0)
           (-90.0 90.0)
  end
  begin
     id 26 
     name rradius
     direction -1 -4.48958e-011 -6.51059e-027   
     length 3.66953   
     axis 180 30 90   XYZ
    dof rx
    limits (-10.0 170.0)
  end
  begin
     id 27 
     name rwrist
     direction -1 -4.48975e-011 -1.74124e-026   
     length 1.83476   
     axis 1.04567e-014 -90 -90   XYZ
    dof ry
    limits (-180.0 0.0)
  end
  begin
     id 28
     name rhand
     direction -1 -4.49013e-011 -3.48326e-026   
     length 0.57843   
     axis 2.22196e-014 -90 -90   XYZ
    dof rx rz
    limits (-90.0 90.0)
           (-45.0 45.0)
  end
  begin
     id 29
     name rfingers
     direction -1 -4.49023e-011 -6.9669e-026   
     length 0.466345   
     axis 4.44383e-014 -90 -90   XYZ
    dof rx
    limits (0.0 90.0)
  end
  begin
     id 30
     name rthumb
     direction -0.707107 -6.34926e-011 0.707107   
     length 0.669581   
     axis -90 -45 5.4397e-014   XYZ
    dof rx rz
    limits (-45.0 45.0)
           (-45.0 45.0)
  end
:hierarchy
  begin
    root lhipjoint rhipjoint lowerback
    lhipjoint lfemur
    lfemur ltibia
    ltibia lfoot
    lfoot ltoes
    rhipjoint rfemur
    rfemur rtibia
    rtibia rfoot
    rfoot rtoes
    lowerback upperback
    upperback thorax
    thorax lowerneck lclavicle rclavicle
    lowerneck upperneck
    upperneck head
    lclavicle lhumerus
    lhumerus lradius
    lradius lwrist
    lwrist lhand lthumb
    lhand lfingers
    rclavicle rhumerus
    rhumerus rradius
    rradius rwrist
    rwrist rhand rthumb
    rhand rfingers
  end

#!OML:ASF H:\SkateBoarding\Project 1\Capture day 1\Session 1\Skater.ASF
:FULLY-SPECIFIED
:DEGREES
293
root 5.67007 18.2056 46.5902 13.5495 66.5978 -4.43723
lowerback 23.5528 -0.268604 -3.51377
upperback 2.38259 -1.0686 0.410031
thorax -10.4568 -0.277673 2.80308
lowerneck -22.9354 -12.4356 -8.01845
upperneck 21.2384 -18.3889 13.6616
head 13.0483 -7.13103 2.96735
rclavicle 4.01545e-014 1.59028e-015
rhumerus -4.1994 30.1144 -84.5161
rradius 43.3342
rwrist -14.7872
rhand -38.668 -3.29506
rfingers 7.12502
rthumb -11.6835 -32.9493
lclavicle 4.01545e-014 1.59028e-015
lhumerus -6.91357 -23.7664 70.0155
lradius 66.4115
lwrist 19.2218
lhand -24.4323 3.45797
lfingers 7.12502
lthumb 2.05987 33.4278
rfemur -56.2874 3.26137 14.9899
rtibia 62.0626
rfoot -13.8559 17.191
rtoes 2.61882
lfemur -51.1976 1.31094 -11.8545
ltibia 73.979
lfoot -46.7184 6.50345
ltoes -22.1201
294
root 5.71672 18.3498 46.8739 13.0713 66.9001 -4.60008
lowerback 23.2818 -0.304738 -3.42187
upperback 2.3119 -1.08489 0.436996
thorax -10.3906 -0.291253 2.78103
lowerneck -22.7004 -12.3953 -7.95785
upperneck 21.6242 -18.3543 13.4394
head 13.1172 -7.12899 2.89744
rclavicle -3.10104e-014 -2.18663e-014
rhumerus -4.73524 29.6898 -84.9638
rradius 42.5274
rwrist -14.6521
rhand -37.9788 -3.49544
rfingers 7.12502
rthumb -11.0188 -33.1862
lclavicle -3.10104e-014 -2.18663e-014
lhumerus -7.79819 -23.7604 71.2155
lradius 65.9209
lwrist 20.555
lhand -25.9729 4.6583
lfingers 7.12502
lthumb 0.571874 34.6373
rfemur -54.2108 3.28377 14.9821
rtibia 59.5308
rfoot -13.9675 17.088
rtoes 3.01238
lfemur -49.878 1.00629 -11.9107
ltibia 72.055
lfoot -46.1943 6.97562
ltoes -22.4609
295
root 5.76397 18.4933 47.1597 12.5328 67.1788 -4.8334
lowerback 23.0058 -0.334177 -3.36012
upperback 2.22218 -1.1012 0.467408
thorax -10.3421 -0.303097 2.78021
lowerneck -22.3936 -12.3372 -7.89007
upperneck 21.9804 -18.2983 13.2347
head 13.1594 -7.12016 2.84078
rclavicle -7.95139e-016 7.95139e-016
rhumerus -5.32967 29.2904 -85.4678
rradius 41.7675
rwrist -14.5516
rhand -37.1111 -3.93624
rfingers 7.12502
rthumb -10.1818 -33.6698
lclavicle -7.95139e-016 7.95139e-016
lhumerus -8.59492 -23.2667 72.3263
lradius 65.0651
lwrist 20.3894
lhand -25.3189 5.18401
lfingers 7.12502
lthumb 1.20358 35.1604
rfemur -52.2172 3.34875 15.0064
rtibia 57.064
rfoot -13.9476 16.7483
rtoes 3.42593
lfemur -48.4934 0.754856 -11.9436
ltibia 70.0664
lfoot -45.6937 7.79895
ltoes -22.9834
296
root 5.8123 18.6278 47.4443 12.1126 67.4517 -4.91119
lowerback 22.7641 -0.34584 -3.33357
upperback 2.12902 -1.1057 0.487053
thorax -10.3161 -0.307446 2.78464
lowerneck -22.1382 -12.3052 -7.8547
upperneck 22.4124 -18.2623 12.9835
head 13.2423 -7.12169 2.76525
rclavicle 6.95746e-014 2.94201e-014
rhumerus -5.92796 28.7791 -85.9309
rradius 40.977
rwrist -14.3637
rhand -36.4683 -4.28918
rfingers 7.12502
rthumb -9.56168 -34.0522
lclavicle 6.95746e-014 2.94201e-014
lhumerus -9.41259 -22.7843 73.4497
lradius 64.1859
lwrist 20.3983
lhand -24.8576 5.11661
lfingers 7.12502
lthumb 1.64914 35.09
rfemur -50.2728 3.33195 15.0215
rtibia 54.6801
rfoot -13.9171 16.3777
rtoes 4.0171
lfemur -47.0596 0.550308 -12.0424
ltibia 68.0893
lfoot -45.3394 8.08899
ltoes -23.0003
297
root 5.86171 18.756 47.7309 11.7644 67.7558 -4.93244
lowerback 22.4817 -0.327576 -3.26411
upperback 2.00608 -1.06836 0.440352
thorax -10.3062 -0.295527 2.6776
lowerneck -21.67 -12.3824 -7.81232
upperneck 22.6625 -18.433 12.9497
head 13.2639 -7.20453 2.73281
rclavicle -7.43455e-014 -9.93923e-015
rhumerus -6.64345 27.9901 -86.4707
rradius 40.2518
rwrist -14.3295
rhand -35.5555 -4.57603
rfingers 7.12502
rthumb -8.68089 -34.3775
lclavicle -7.43455e-014 -9.93923e-015
lhumerus -10.1748 -22.4838 74.4949
lradius 63.2911
lwrist 20.4767
lhand -24.4969 5.31952
lfingers 7.12502
lthumb 1.99742 35.2899
rfemur -48.4281 3.18904 15.0698
rtibia 52.4188
rfoot -13.9119 15.8537
rtoes 3.85985
lfemur -45.6049 0.154 -12.0752
ltibia 66.0966
lfoot -45.0587 8.37019
ltoes -23.0928
